<?xml version="1.0" encoding="UTF-8" standalone="no"?>
<!-- Created with Inkscape (http://www.inkscape.org/) -->

<svg
   width="15.91057"
   height="9.7752724"
   viewBox="0 0 4.2096717 2.5863741"
   version="1.1"
   id="svg1022"
   inkscape:version="1.1.1 (3bf5ae0d25, 2021-09-20)"
   sodipodi:docname="logo1.svg"
   xmlns:inkscape="http://www.inkscape.org/namespaces/inkscape"
   xmlns:sodipodi="http://sodipodi.sourceforge.net/DTD/sodipodi-0.dtd"
   xmlns:xlink="http://www.w3.org/1999/xlink"
   xmlns="http://www.w3.org/2000/svg"
   xmlns:svg="http://www.w3.org/2000/svg">
  <sodipodi:namedview
     id="namedview1024"
     pagecolor="#b9b9b9"
     bordercolor="#666666"
     borderopacity="1.0"
     inkscape:pageshadow="2"
     inkscape:pageopacity="0.29803922"
     inkscape:pagecheckerboard="true"
     inkscape:document-units="px"
     showgrid="false"
     inkscape:showpageshadow="true"
     units="px"
     fit-margin-top="0"
     fit-margin-left="0"
     fit-margin-right="0"
     fit-margin-bottom="0"
     inkscape:zoom="20.48"
     inkscape:cx="12.62207"
     inkscape:cy="8.2763672"
     inkscape:window-width="1920"
     inkscape:window-height="1001"
     inkscape:window-x="-9"
     inkscape:window-y="-9"
     inkscape:window-maximized="1"
     inkscape:current-layer="layer1" />
  <defs
     id="defs1019">
    <linearGradient
       inkscape:collect="always"
       id="linearGradient981">
      <stop
         style="stop-color:#ff6600;stop-opacity:1;"
         offset="0"
         id="stop977" />
      <stop
         style="stop-color:#ffc220;stop-opacity:1"
         offset="1"
         id="stop979" />
    </linearGradient>
    <rect
       x="-9167.2148"
       y="10580.273"
       width="4592.439"
       height="865.49817"
       id="rect11141" />
    <rect
       x="16214.843"
       y="7807.1465"
       width="9361.5107"
       height="1801.6492"
       id="rect8502" />
    <rect
       x="12788.177"
       y="6888.6587"
       width="9043.5723"
       height="1660.3434"
       id="rect7044" />
    <rect
       x="11269.139"
       y="6146.8032"
       width="11763.71"
       height="2013.6079"
       id="rect4288" />
    <rect
       x="-9167.2148"
       y="10580.273"
       width="4592.439"
       height="865.49817"
       id="rect11649" />
    <rect
       x="-9167.2148"
       y="10580.273"
       width="4592.439"
       height="865.49817"
       id="rect3621" />
    <rect
       x="-9167.2148"
       y="10580.273"
       width="4592.439"
       height="865.49817"
       id="rect3679" />
    <linearGradient
       inkscape:collect="always"
       xlink:href="#linearGradient981"
       id="linearGradient5938"
       x1="-9015.252"
       y1="10560.05"
       x2="-8993.1279"
       y2="10649.996"
       gradientUnits="userSpaceOnUse" />
    <filter
       inkscape:collect="always"
       style="color-interpolation-filters:sRGB"
       id="filter1164"
       x="-0.061682114"
       y="-0.040076842"
       width="1.123401"
       height="1.0795663">
      <feGaussianBlur
         inkscape:collect="always"
         stdDeviation="22.405027"
         id="feGaussianBlur1162" />
    </filter>
    <rect
       x="-9167.2148"
       y="10580.273"
       width="4592.439"
       height="865.49817"
       id="rect3621-0" />
    <rect
       x="-9167.2148"
       y="10580.273"
       width="4592.439"
       height="865.49817"
       id="rect3683" />
    <filter
       inkscape:collect="always"
       style="color-interpolation-filters:sRGB"
       id="filter3721"
       x="-0.013420358"
       y="-0.14348207"
       width="1.0268407"
       height="1.2869641">
      <feGaussianBlur
         inkscape:collect="always"
         stdDeviation="1.4034486"
         id="feGaussianBlur3723" />
    </filter>
    <rect
       x="-9167.2148"
       y="10580.273"
       width="4592.439"
       height="865.49817"
       id="rect3942" />
    <rect
       x="-9167.2148"
       y="10580.273"
       width="4592.439"
       height="865.49817"
       id="rect3944" />
  </defs>
  <g
     inkscape:label="Layer 1"
     inkscape:groupmode="layer"
     id="layer1"
     transform="translate(-0.01979528,-0.87756394)">
    <text
       xml:space="preserve"
       transform="matrix(0.26458333,0,0,0.26458333,4704.0045,-4855.455)"
       id="text7042"
       style="font-style:normal;font-weight:normal;font-size:40px;line-height:1.25;font-family:sans-serif;white-space:pre;shape-inside:url(#rect7044);fill:#000000;fill-opacity:1;stroke:none" />
    <g
       id="g3972"
       transform="matrix(0.00156101,0,0,0.00156101,29.76621,5.3255117)">
      <g
         id="g3930"
         transform="matrix(0.50921895,0,0,0.50921895,-10185.684,-3449.8051)">
        <g
           id="g3922"
           transform="matrix(1.0667311,0,0,1.043384,-3196.363,4046.1734)"
           style="opacity:0.491773;fill:none;stroke:#000000;filter:url(#filter1164)">
          <path
             style="fill:none;fill-opacity:1;stroke:#000000;stroke-width:68.698;stroke-miterlimit:4;stroke-dasharray:none"
             d="m -11066.898,-2600.9105 c -178.67,74.7323 -341.964,160.7739 -463.265,312.1038 -33.95,42.3529 -84.039,93.687 -99.197,145.8495 -8.822,30.3561 15.239,62.9474 49.169,60.6563 35.243,-2.3806 49.112,-37.7249 65.164,-62.1096 35.651,-54.1669 76.644,-108.4161 125.189,-152.9751 144.612,-132.7448 316.559,-220.4582 514.788,-253.9378 150.18,-25.3662 307.787,-11.3549 452.106,34.4726 49.718,15.7859 148.879,87.1673 198.69,58.1459 29.951,-17.4491 25.165,-59.1671 -0.58,-77.9869 -51.543,-37.6899 -132.622,-61.7614 -194.723,-78.5372 -201.882,-54.5376 -450.028,-68.2062 -647.341,14.3185 m 93.585,249.6406 c -136.535,57.1067 -254.426,124.2594 -346.985,239.0049 -22.826,28.2987 -56.902,65.0539 -63.745,100.9497 -5.859,30.6927 19.817,59.6248 53.065,55.7492 29.253,-3.4033 45.548,-33.1928 58.82,-54.8423 20.725,-33.7854 47.093,-66.3115 76.224,-93.9695 97.859,-92.8901 217.322,-162.5731 355.36,-184.4244 110.346,-17.4638 220.838,-9.3521 326.967,24.0661 42.501,13.3889 110.901,64.7862 154.967,39.0436 26.367,-15.4002 25.091,-51.6654 5.475,-71.6781 -30.001,-30.6035 -97.287,-48.8599 -138.632,-60.5205 -149.813,-42.2659 -334.257,-54.9703 -481.516,6.6213"
             id="path3918"
             sodipodi:nodetypes="ccscccccsccccccccccccccc" />
          <path
             id="path3920"
             style="fill:none;stroke:#000000;stroke-width:66.9782;stroke-linecap:round;stroke-linejoin:round;stroke-miterlimit:4;stroke-dasharray:none;stroke-opacity:1"
             d="m -10597.071,-2110.441 c -95.63,-15.4859 -196.055,-7.4362 -285.867,27.6662 -102.884,40.2182 -184.703,99.8059 -251.914,184.6081 -27.184,34.2991 -49.301,122.2299 27.608,116.077 54.835,-4.3891 92.499,-87.2432 130.011,-120.919 68.919,-61.8696 157.193,-93.8558 250.008,-105.2354 50.388,-6.1732 148.152,-7.6437 191.164,20.9293 61.199,40.6565 -213.395,373.4419 -223.694,403.8667 -7.329,21.6502 72.576,59.6176 223.718,-9.4664 l -391.846,1123.67319 c -63.448,181.94522 690.357,-1227.62349 578.045,-1230.47429 l -212.455,42.2566 c -17.156,11.9974 23.567,-19.8115 169.34,-319.6123 22.702,-46.6897 -72.473,-97.211 -110.655,-110.1694 -30.24,-10.2624 -61.585,-18.0387 -93.463,-23.2003 z"
             sodipodi:nodetypes="scscscsscsccccs" />
        </g>
        <g
           id="g3928"
           transform="translate(-3925.8526,3932.4619)"
           style="fill:#000000;stroke:#000000">
          <path
             style="fill:#000000;fill-opacity:1;stroke:#000000;stroke-width:68.698;stroke-miterlimit:4;stroke-dasharray:none"
             d="m -11066.898,-2600.9105 c -178.67,74.7323 -341.964,160.7739 -463.265,312.1038 -33.95,42.3529 -84.039,93.687 -99.197,145.8495 -8.822,30.3561 15.239,62.9474 49.169,60.6563 35.243,-2.3806 49.112,-37.7249 65.164,-62.1096 35.651,-54.1669 76.644,-108.4161 125.189,-152.9751 144.612,-132.7448 316.559,-220.4582 514.788,-253.9378 150.18,-25.3662 307.787,-11.3549 452.106,34.4726 49.718,15.7859 148.879,87.1673 198.69,58.1459 29.951,-17.4491 25.165,-59.1671 -0.58,-77.9869 -51.543,-37.6899 -132.622,-61.7614 -194.723,-78.5372 -201.882,-54.5376 -450.028,-68.2062 -647.341,14.3185 m 93.585,249.6406 c -136.535,57.1067 -254.426,124.2594 -346.985,239.0049 -22.826,28.2987 -56.902,65.0539 -63.745,100.9497 -5.859,30.6927 19.817,59.6248 53.065,55.7492 29.253,-3.4033 45.548,-33.1928 58.82,-54.8423 20.725,-33.7854 47.093,-66.3115 76.224,-93.9695 97.859,-92.8901 217.322,-162.5731 355.36,-184.4244 110.346,-17.4638 220.838,-9.3521 326.967,24.0661 42.501,13.3889 110.901,64.7862 154.967,39.0436 26.367,-15.4002 25.091,-51.6654 5.475,-71.6781 -30.001,-30.6035 -97.287,-48.8599 -138.632,-60.5205 -149.813,-42.2659 -334.257,-54.9703 -481.516,6.6213"
             id="path3924"
             sodipodi:nodetypes="ccscccccsccccccccccccccc" />
          <path
             id="path3926"
             style="fill:#000000;stroke:#000000;stroke-width:66.9782;stroke-linecap:round;stroke-linejoin:round;stroke-miterlimit:4;stroke-dasharray:none;stroke-opacity:1"
             d="m -10597.071,-2110.441 c -95.63,-15.4859 -196.055,-7.4362 -285.867,27.6662 -102.884,40.2182 -184.703,99.8059 -251.914,184.6081 -27.184,34.2991 -49.301,122.2299 27.608,116.077 54.835,-4.3891 92.499,-87.2432 130.011,-120.919 68.919,-61.8696 157.193,-93.8558 250.008,-105.2354 50.388,-6.1732 148.152,-7.6437 191.164,20.9293 61.199,40.6565 -213.395,373.4419 -223.694,403.8667 -7.329,21.6502 72.576,59.6176 223.718,-9.4664 l -391.846,1123.67319 c -63.448,181.94522 690.357,-1227.62349 578.045,-1230.47429 l -212.455,42.2566 c -17.156,11.9974 23.567,-19.8115 169.34,-319.6123 22.702,-46.6897 -72.473,-97.211 -110.655,-110.1694 -30.24,-10.2624 -61.585,-18.0387 -93.463,-23.2003 z"
             sodipodi:nodetypes="scscscsscsccccs" />
        </g>
      </g>
      <text
         xml:space="preserve"
         transform="matrix(9.1114198,0,0,9.1114198,64499.151,-97967.765)"
         id="text3934"
         style="font-style:normal;font-variant:normal;font-weight:normal;font-stretch:normal;font-size:40px;line-height:1.25;font-family:BabaPro;-inkscape-font-specification:'BabaPro, Normal';font-variant-ligatures:normal;font-variant-caps:normal;font-variant-numeric:normal;font-variant-east-asian:normal;white-space:pre;shape-inside:url(#rect3942);opacity:0.367459;fill:#000000;fill-opacity:1;stroke:#000000;filter:url(#filter3721)"
         inkscape:export-filename="C:\Users\nynos\OneDrive\Desktop\Ligia\sncanspree\thissssss.png"
         inkscape:export-xdpi="96"
         inkscape:export-ydpi="96"><tspan
           x="-9167.2148"
           y="10618.082"
           id="tspan2358">SCANSPREE</tspan></text>
      <text
         xml:space="preserve"
         transform="matrix(9.1114198,0,0,9.1114198,64499.151,-97967.765)"
         id="text3938"
         style="font-style:normal;font-variant:normal;font-weight:normal;font-stretch:normal;font-size:40px;line-height:1.25;font-family:BabaPro;-inkscape-font-specification:'BabaPro, Normal';font-variant-ligatures:normal;font-variant-caps:normal;font-variant-numeric:normal;font-variant-east-asian:normal;white-space:pre;shape-inside:url(#rect3944);fill:url(#linearGradient5938);fill-opacity:1;stroke:url(#linearGradient5938)"
         inkscape:export-filename="C:\Users\nynos\OneDrive\Desktop\Ligia\sncanspree\thissssss.png"
         inkscape:export-xdpi="96"
         inkscape:export-ydpi="96"><tspan
           x="-9167.2148"
           y="10618.082"
           id="tspan2360">SCANSPREE</tspan></text>
    </g>
  </g>
</svg>
